<?xml version="1.0" encoding="UTF-8"?>
<svg width="69px" height="52px" viewBox="0 0 69 52" version="1.1" xmlns="http://www.w3.org/2000/svg" xmlns:xlink="http://www.w3.org/1999/xlink">
    <!-- Generator: Sketch 53.2 (72643) - https://sketchapp.com -->
    <title>Group 18</title>
    <desc>Created with Sketch.</desc>
    <g id="Page-1" stroke="none" stroke-width="1" fill="none" fill-rule="evenodd">
        <g id="Home-AWMUN-III" transform="translate(-676.000000, -1250.000000)" fill-rule="nonzero">
            <g id="Group-18" transform="translate(676.000000, 1250.000000)">
                <g id="remove" opacity="0.5">
                    <path d="M20,0 C8.97155766,0 0,8.97155766 0,20 C0,31.0284423 8.97155766,40 20,40 C31.0284423,40 40,31.0284423 40,20 C40,8.97155766 31.0284423,0 20,0 Z" id="Path" fill="#F44336"></path>
                    <path d="M27.8070626,24.5083587 C28.4545564,25.1636299 28.4545564,26.2223101 27.8070626,26.8775812 C27.4840739,27.2042965 27.0600944,27.3684211 26.6358115,27.3684211 C26.2118319,27.3684211 25.7878524,27.2042965 25.4648637,26.8775812 L20.4878049,21.8427916 L15.510746,26.8775812 C15.1877573,27.2042965 14.7637778,27.3684211 14.3397982,27.3684211 C13.9155154,27.3684211 13.4915359,27.2042965 13.1685471,26.8775812 C12.5210534,26.2223101 12.5210534,25.1636299 13.1685471,24.5083587 L18.1459093,19.4738759 L13.1685471,14.4393931 C12.5210534,13.784122 12.5210534,12.7254418 13.1685471,12.0701706 C13.8163442,11.4152063 14.8629489,11.4152063 15.510746,12.0701706 L20.4878049,17.1049602 L25.4648637,12.0701706 C26.1126608,11.4152063 27.1592656,11.4152063 27.8070626,12.0701706 C28.4545564,12.7254418 28.4545564,13.784122 27.8070626,14.4393931 L22.8297004,19.4738759 L27.8070626,24.5083587 Z" id="Path" fill="#FAFAFA"></path>
                </g>
                <path d="M59.5804944,20.001744 C59.9817343,20.2030587 60.1190977,20.6489452 59.8874368,20.997625 L50.2461572,35.5087153 C49.6713114,36.3756032 48.5967894,36.9143219 47.4425115,36.9143219 C46.8758314,36.9143219 46.3170934,36.7839679 45.8264777,36.5373549 C45.7961638,36.5218019 45.7567893,36.5307449 45.7386681,36.5580599 L44.4473623,38.5021908 L45.2224366,38.8911142 C46.3770501,39.470368 46.7740393,40.7579659 46.1074687,41.7613318 L39.5473583,51.6353783 C39.3919855,51.86916 39.1099878,52 38.820048,52 C38.6777628,52 38.5335759,51.9685051 38.401358,51.9022102 C38.0001181,51.7008955 37.8626428,51.255009 38.0943038,50.9063292 L44.6544142,41.03238 C44.858334,40.7252073 44.7368547,40.3311319 44.3834906,40.1538272 L39.2946677,37.6006001 L29.6387346,32.7563119 C29.6377279,32.7558259 29.6367212,32.7551455 29.6357144,32.7546594 L28.1366857,32.0025724 C27.7833216,31.8253649 27.3297315,31.930834 27.1256998,32.2380066 L20.5655893,42.1119558 C20.3339284,42.4605385 19.8209408,42.5801026 19.4195891,42.3787878 C19.0183492,42.1774731 18.8808739,41.7315866 19.1125348,41.3829068 L25.6729809,31.5090548 C26.3396633,30.5056888 27.8213538,30.1608 28.9759673,30.7399566 L29.7513771,31.1289772 L31.080715,29.1275916 C29.3968944,28.1680658 28.294855,26.5855433 28.109392,24.8320344 L27.3880102,18.0097875 C27.322125,17.3861103 27.4776097,16.7698208 27.8380209,16.2275055 L30.4043008,12.3647118 C30.6357381,12.0160319 31.1487256,11.8963707 31.5503011,12.0978798 C31.951541,12.2991946 32.0890163,12.745081 31.8573553,13.0937609 L29.2910754,16.9566518 C29.105165,17.2365094 29.024738,17.5545692 29.0588551,17.8764201 L29.7802368,24.698667 C29.9273321,26.0900815 30.8464813,27.3378247 32.238908,28.0365454 L32.6202369,28.2278478 C32.6207962,28.2281395 32.6212437,28.2284311 32.621803,28.2286255 L34.353052,29.097166 C36.4071274,30.127847 39.0434314,29.5138904 40.2295892,27.7287894 L40.8074552,26.8589853 C41.0390043,26.5103054 41.55188,26.3906441 41.9534555,26.5921533 C42.3546954,26.7934681 42.4921707,27.2393545 42.2605097,27.5880344 L41.6826437,28.4578385 C40.8839671,29.6598947 39.5944511,30.5197838 38.0516853,30.8790591 C37.5364606,30.999012 37.0136294,31.0584052 36.4942659,31.0584052 C35.4579998,31.0584052 34.4353805,30.8221933 33.5139941,30.359879 L32.5280647,29.8651949 L31.2044316,31.8580263 L40.0956934,36.3189318 L42.9943078,37.7731417 L44.2851661,35.8295941 C44.7648195,35.1065718 45.8329656,34.857723 46.6655356,35.2746419 C46.9023421,35.3937199 47.1704693,35.4563209 47.4425115,35.4563209 C47.9986768,35.4563209 48.5161387,35.1972655 48.7927672,34.7801522 L58.4343823,20.2684787 C58.6660432,19.9197989 59.1789189,19.8001376 59.5804944,20.001744 Z M67.0536109,3.45752671 C68.9133506,4.39963699 69.5526016,6.49400195 68.4790798,8.12628194 L61.2310676,19.143784 C61.0775811,19.3770084 60.7990069,19.5075365 60.5125871,19.5075365 C60.3720292,19.5075365 60.2295928,19.4761167 60.0989801,19.4099798 C59.7026114,19.209145 59.5668051,18.7643216 59.7956536,18.4164729 L67.0436658,7.39906784 C67.6603745,6.46132144 67.2933991,5.25834892 66.2255129,4.71732646 C65.1463556,4.17116433 63.7829885,4.50572743 63.1705894,5.43639467 L57.0952187,14.670433 C57.0922352,14.6749908 57.0892517,14.6794517 57.0862681,14.6838155 L56.6338751,15.3713669 L53.3908781,20.3007904 C52.670519,21.39583 51.3585351,22.0088078 50.0117432,22.0089047 C49.3513865,22.0090017 48.6829631,21.861697 48.071227,21.5517655 C46.8340525,20.9248233 46.1378933,19.7879877 46.1260696,18.6166289 C45.7869406,18.6989605 45.435767,18.7424053 45.0818308,18.7424053 C44.4316402,18.7425022 43.7733829,18.5996583 43.1693819,18.2991334 C43.1595473,18.2946726 43.1498231,18.2899208 43.1402095,18.2850721 C42.5725635,17.9972508 42.1011642,17.5925749 41.7638032,17.1060523 C41.7255697,17.0875301 41.6871152,17.0693958 41.6491027,17.0500979 L38.9540825,15.6845956 C38.8394924,15.6265077 38.7302065,15.6394053 38.6753978,15.6523999 C38.6204785,15.6652976 38.5185962,15.7019541 38.4522953,15.8026139 C38.3509654,15.9566099 38.4114097,16.1541476 38.5867756,16.2430735 L39.0481192,16.4767828 C40.8191262,17.3741877 42.1801728,18.7180646 42.9838499,20.3631452 C43.7605648,21.9530473 43.9505168,23.7533846 43.518456,25.4326974 C43.4314914,25.7706546 43.0895998,26 42.7108008,26 C42.6503565,26 42.5890282,25.9940845 42.5275894,25.9819627 C42.081053,25.8935217 41.8008212,25.5041678 41.9017091,25.1122926 C42.6516825,22.196551 41.1720679,19.2325159 38.2194687,17.7364856 L37.7581251,17.5027763 C36.7911267,17.0127626 36.4586278,15.9238324 37.0168812,15.0753028 C37.2872783,14.6642266 37.7239801,14.370199 38.2464311,14.2473319 C38.7685505,14.1244648 39.3145382,14.1875954 39.7828435,14.4248928 L42.4778637,15.7903951 C44.196935,16.6613258 46.3118226,16.4035668 47.700163,15.2806955 L48.6358895,13.858366 C48.6313589,13.8356738 48.6259443,13.8128848 48.6190932,13.7903866 C48.5593119,13.5944005 48.4162125,13.430707 48.2159839,13.3292714 L38.8102095,8.56363833 C38.1099617,8.20890448 37.2942399,8.11454799 36.5129946,8.29821828 C35.7318597,8.48188857 35.0791275,8.92157235 34.6748027,9.53610172 L33.5465827,11.2510043 C33.3178446,11.5988529 32.8109744,11.7180349 32.4144952,11.5172001 C32.0181264,11.3163653 31.8823201,10.8715418 32.1111686,10.5236932 L33.2393886,8.80879065 C33.8650479,7.85775869 34.8753628,7.1774804 36.0840279,6.89324724 C37.0523522,6.66564736 38.054711,6.71461964 38.9724257,7.025036 L40.4015412,4.85280027 C41.0951589,3.79878107 42.3885785,3.14410413 43.7768085,3.14410413 C44.456945,3.14410413 45.1293464,3.30246399 45.7214133,3.60211615 C46.6623333,4.07874734 47.2900921,4.85047288 47.5423669,5.70792414 C48.1199581,5.42068476 48.7805359,5.26106422 49.4644295,5.26106422 C50.143682,5.26106422 50.8157519,5.41942408 51.4077083,5.71907624 C52.973072,6.51203926 53.6735408,8.12123925 53.2159543,9.58420123 C54.059854,9.48693549 54.9122623,9.63385233 55.6619042,10.0136057 C56.3654671,10.3700851 56.9115653,10.8982099 57.2457217,11.5323282 L61.7349543,4.7090836 C62.8084761,3.07777336 65.1887882,2.51386484 67.0536109,3.45752671 Z M44.3106411,9.67109065 L45.7108051,7.54278451 C46.3272928,6.605426 45.9603174,5.40284139 44.8926523,4.8619159 C44.5523078,4.68968864 44.1662156,4.5986293 43.776477,4.5986293 C42.9783249,4.5986293 42.2349815,4.97469761 41.8365132,5.58011134 L40.4365701,7.70812656 L44.3106411,9.67109065 Z M45.7461656,10.3984987 L49.0444134,12.0696656 C49.24199,12.1697436 49.4185714,12.2921258 49.5750414,12.4304119 L50.3421426,11.2645807 C50.3429161,11.2633201 50.3438001,11.2621564 50.3445736,11.2609927 L51.3972106,9.66081132 C52.0140298,8.72316189 51.6470544,7.52009241 50.5790578,6.97906994 C50.2388237,6.80674571 49.8531736,6.71568636 49.464098,6.71568636 C48.6657249,6.71568636 47.9219395,7.09214257 47.5230292,7.69813816 L45.7461656,10.3984987 Z M55.6516276,13.9546619 C55.950313,13.5006259 56.0296531,12.9716283 55.8751721,12.4653228 C55.3627767,10.7872707 52.7750534,10.4796666 51.7789932,11.9902432 L50.2875549,14.2573203 C50.2467798,14.5484387 50.1401459,14.832284 49.9679846,15.094019 C49.7007921,15.5002465 49.3810009,15.8634171 49.0213186,16.1820763 C48.7069419,16.6597742 48.7242906,16.633979 48.0810616,17.6108062 C47.4644634,18.5480677 47.8316598,19.7509433 48.8996565,20.2920627 C49.9677636,20.8331822 51.3383133,20.5109349 51.955022,19.5735764 L54.2419604,16.0974173 C54.2427339,16.0962536 54.2431759,16.0950899 54.2439494,16.0940232 L55.0270733,14.9039483 L55.6516276,13.9546619 Z M39.5002746,41.3345408 C40.9331763,42.0238029 41.4258328,43.5561744 40.5986,44.7502536 C40.0436036,45.551422 39.0327828,46 37.9949671,46 C37.4861823,46 36.9711063,45.8922879 36.4997254,45.6655206 C35.0668237,44.9762584 34.5741672,43.4438869 35.4014,42.2498077 C36.2285184,41.0557285 38.0673728,40.645088 39.5002746,41.3345408 Z M39.112738,44.0353503 C39.6065383,43.3224487 38.985313,42.4294868 38.0021733,42.4294868 C36.6857156,42.4294868 36.2264595,43.8831235 37.3576135,44.4272127 C37.9712893,44.7223248 38.7584874,44.5467445 39.112738,44.0353503 Z" id="Combined-Shape" fill="#5B1529"></path>
            </g>
        </g>
    </g>
</svg>