<?xml version="1.0" encoding="UTF-8"?>
<svg width="61px" height="53px" viewBox="0 0 61 53" version="1.1" xmlns="http://www.w3.org/2000/svg" xmlns:xlink="http://www.w3.org/1999/xlink">
    <!-- Generator: Sketch 53.2 (72643) - https://sketchapp.com -->
    <title>Group 16</title>
    <desc>Created with Sketch.</desc>
    <g id="Page-1" stroke="none" stroke-width="1" fill="none" fill-rule="evenodd">
        <g id="Home-AWMUN-III" transform="translate(-105.000000, -1249.000000)" fill-rule="nonzero">
            <g id="Group-16" transform="translate(105.000000, 1249.000000)">
                <g id="remove" opacity="0.5" transform="translate(0.000000, 2.000000)">
                    <path d="M20,0 C8.97155766,0 0,8.97155766 0,20 C0,31.0284423 8.97155766,40 20,40 C31.0284423,40 40,31.0284423 40,20 C40,8.97155766 31.0284423,0 20,0 Z" id="Path" fill="#F44336"></path>
                    <path d="M27.8070626,24.5083587 C28.4545564,25.1636299 28.4545564,26.2223101 27.8070626,26.8775812 C27.4840739,27.2042965 27.0600944,27.3684211 26.6358115,27.3684211 C26.2118319,27.3684211 25.7878524,27.2042965 25.4648637,26.8775812 L20.4878049,21.8427916 L15.510746,26.8775812 C15.1877573,27.2042965 14.7637778,27.3684211 14.3397982,27.3684211 C13.9155154,27.3684211 13.4915359,27.2042965 13.1685471,26.8775812 C12.5210534,26.2223101 12.5210534,25.1636299 13.1685471,24.5083587 L18.1459093,19.4738759 L13.1685471,14.4393931 C12.5210534,13.784122 12.5210534,12.7254418 13.1685471,12.0701706 C13.8163442,11.4152063 14.8629489,11.4152063 15.510746,12.0701706 L20.4878049,17.1049602 L25.4648637,12.0701706 C26.1126608,11.4152063 27.1592656,11.4152063 27.8070626,12.0701706 C28.4545564,12.7254418 28.4545564,13.784122 27.8070626,14.4393931 L22.8297004,19.4738759 L27.8070626,24.5083587 Z" id="Path" fill="#FAFAFA"></path>
                </g>
                <path d="M52.5635572,30.617541 C57.5429829,32.4563159 60.999643,36.4311248 61,41.0297438 L61,50.5473658 C61,51.8996782 59.5984487,53 57.8759205,53 L24.1240795,53 C22.4015513,53 21,51.8996782 21,50.5473658 L21,41.0296037 C21,36.4311248 24.4568386,32.4563159 29.4362643,30.617541 C29.4569725,30.6089918 29.4769666,30.5996017 29.4983889,30.5917533 C29.6428106,30.5391969 29.7881249,30.4893033 29.9339748,30.4405309 C29.9512911,30.4347847 29.9689645,30.4291787 29.9862808,30.4234325 C31.0939902,30.0576397 32.2416877,29.8031263 33.4191979,29.6617144 C33.4206261,29.6614341 33.4222327,29.661294 33.4238394,29.6611538 C33.6641257,29.632423 33.9056617,29.6080368 34.1482688,29.588696 C34.1530888,29.5882756 34.1580873,29.5879953 34.1629074,29.5875748 C34.4048004,29.5683742 34.6477645,29.5535182 34.8917997,29.5438478 C34.8973338,29.5437077 34.9026894,29.5435675 34.908045,29.5434274 C35.1540439,29.5338971 35.401114,29.5285714 35.6492551,29.5285714 L35.728339,29.5285714 L46.2714825,29.5285714 L46.3503878,29.5285714 C46.598529,29.5285714 46.8455991,29.5338971 47.0917765,29.5434274 C47.0971321,29.5435675 47.1024877,29.5437077 47.1078432,29.5438478 C47.3516999,29.5535182 47.594307,29.5683742 47.8360215,29.5874346 C47.8413771,29.5878551 47.8465541,29.5881354 47.8517312,29.5885559 C48.0938027,29.6078966 48.3348031,29.6321427 48.5745539,29.6608735 C48.5766962,29.6611538 48.5790169,29.6614341 48.5813376,29.6617144 C48.8218025,29.6905854 49.0608392,29.7243617 49.2988048,29.7626228 C49.2989833,29.7626228 49.2991619,29.7626228 49.2993404,29.7626228 C50.2258531,29.9118831 51.1323717,30.1323399 52.0133621,30.4232924 C52.0306785,30.4290385 52.0481733,30.4345044 52.0654896,30.4403907 C52.2113395,30.489023 52.3568324,30.5390567 52.5012541,30.5916131 C52.5226764,30.5994616 52.542849,30.6088517 52.5635572,30.617541 Z M45.3262253,38.8327442 L50.0325172,32.08772 C50.0002053,32.0794511 49.9686075,32.070061 49.9362956,32.0620724 C49.9066614,32.0547846 49.8768488,32.0480574 49.8472147,32.0409097 C49.6951166,32.0043304 49.5417689,31.9699935 49.3871716,31.9380392 C49.357359,31.9320128 49.3275463,31.925706 49.2977337,31.9198197 C49.1220712,31.884782 48.945159,31.8522671 48.7664617,31.8233961 C48.7634268,31.8228355 48.760392,31.8222749 48.7573572,31.8218544 C48.3847884,31.76187 48.0056144,31.7164612 47.6214419,31.6843668 C47.5816322,31.6811433 47.5418225,31.6782002 47.5018343,31.675257 C47.4886239,31.6742759 47.4750565,31.6738555 47.4616675,31.6728744 C47.0846358,33.0648494 45.9992413,34.2708447 44.4404149,35.0122409 L45.3262253,38.8327442 Z M31.9662332,32.0878601 L36.6730606,38.8327442 L37.558871,35.0122409 C36.0000446,34.2708447 34.9146501,33.0648494 34.5376184,31.6727343 C34.5242295,31.6737153 34.5108406,31.6741358 34.4976302,31.6751168 C34.4574634,31.6782002 34.4172967,31.6810032 34.37713,31.6843668 C33.9933145,31.7163211 33.6144975,31.7617299 33.2422858,31.8215741 C33.2383583,31.8222749 33.2344309,31.8231158 33.2305035,31.8236764 C33.0526988,31.8525474 32.8768577,31.884782 32.7020878,31.9196795 C32.6715611,31.9258461 32.6410343,31.9321529 32.6105076,31.9384597 C32.4568029,31.9701337 32.3043478,32.0043304 32.1529639,32.0406294 C32.1226157,32.0479172 32.0922675,32.0547846 32.0619193,32.0623527 C32.0296073,32.0703413 31.9983666,32.0795913 31.9662332,32.0878601 Z M41.6266011,34.6144938 C41.512349,34.1218647 41.8568904,33.634281 42.4497514,33.4494225 C43.5235422,33.1146029 44.3266984,32.4472061 44.7003383,31.6308293 L37.2989476,31.6308293 C37.6725875,32.4472061 38.4757438,33.1146029 39.5495345,33.4494225 C40.1423955,33.634281 40.4869369,34.1217245 40.3726848,34.6144938 L38.7160301,41.7602083 L40.999643,45.0327231 L43.2832558,41.7602083 L41.6266011,34.6144938 Z M58.3218605,50.5472257 L58.3218605,41.0296037 C58.3218605,37.6043249 55.9748735,34.6023007 52.4778681,32.9594562 L42.1737613,47.7255752 C41.939009,48.0622168 41.488606,48.2716016 40.999643,48.2716016 C40.5106799,48.2716016 40.0602769,48.0622168 39.8255246,47.7255752 L29.5212393,32.9594562 C26.0244124,34.6021605 23.6774254,37.6041847 23.6774254,41.0294635 L23.6774254,50.5472257 C23.6774254,50.7404933 23.877545,50.897602 24.1237225,50.897602 L57.8755635,50.897602 C58.1217409,50.897602 58.3218605,50.7404933 58.3218605,50.5472257 Z M41.0001781,27.2571429 C33.3856874,27.2571429 27.1910105,22.3866903 27.1904762,16.4003549 L27.1904762,10.0873343 C27.1904762,10.0377644 27.1943944,9.98903467 27.1952849,9.93974482 C27.1952849,9.93778443 27.1951068,9.93582404 27.1951068,9.93386365 C27.1952849,9.92574203 27.1961754,9.91762041 27.1963535,9.90935876 C27.1999155,9.75294752 27.2072176,9.59723643 27.2196846,9.44264556 C27.2202189,9.43438391 27.2212875,9.42626229 27.2219999,9.41800064 C27.2351793,9.26200949 27.2519207,9.10685851 27.2740051,8.95282775 C27.2761423,8.93784476 27.27917,8.92286177 27.2813072,8.90787877 C27.3030354,8.76210967 27.3274352,8.61718073 27.3569998,8.47337201 C27.3641238,8.43752485 27.373385,8.40223781 27.3812214,8.36653068 C27.4079364,8.24484638 27.4353638,8.12330211 27.4675999,8.00315811 C27.4877252,7.92726296 27.5117687,7.852348 27.5342093,7.77687293 C27.5577186,7.69845727 27.5794468,7.6194815 27.6052713,7.54176598 C27.6521116,7.39977763 27.7037606,7.25918956 27.7582592,7.11930162 C27.7623555,7.10879952 27.7657394,7.09829743 27.7698357,7.08793536 C28.3876649,5.52088244 29.489392,4.0874162 31.0146411,2.90445998 C32.9537947,1.40041964 35.3985745,0.440527967 38.0431825,0.120143991 C38.0535123,0.118883739 38.063664,0.117203404 38.0739938,0.115943152 C38.2563683,0.0942388181 38.4398114,0.076455267 38.6237888,0.0609121633 C38.6565592,0.058111604 38.6887953,0.0541908211 38.7217438,0.0515302899 C38.8923637,0.0380876055 39.0640522,0.0288457601 39.2360968,0.0207241383 C39.2811562,0.0186237189 39.3256812,0.0148429639 39.3709186,0.0130226004 C39.5865978,0.00448089477 39.8033456,0 40.0208058,0 L41.9797285,0 C49.0542198,0 54.8095238,4.52500358 54.8095238,10.0871943 L54.8095238,15.4926937 L54.8095238,16.4002149 C54.8095238,17.9970938 54.3783435,19.535581 53.5280938,20.9732481 C53.2167748,21.499053 52.4222704,21.7268785 51.7535046,21.4826698 C51.0845607,21.2380409 50.7946138,20.6133762 51.1055765,20.0874312 C51.7907275,18.92954 52.1380226,17.6888922 52.1380226,16.4002149 L52.1380226,16.3010751 C49.0015022,15.6163384 45.2517832,14.4818318 41.8851574,13.1896538 C40.3609769,12.604617 38.0650888,11.658448 36.2365353,10.6271421 C36.4648596,11.7326628 37.0160794,12.7513663 37.4258876,13.395915 C37.6600892,13.7643285 37.5990009,14.2062568 37.2695158,14.5263607 C36.9400306,14.8463246 36.4034151,14.9856524 35.896008,14.8821718 C33.9890904,14.4935942 31.7861706,13.5534464 29.8625117,12.3550871 L29.8625117,16.4000749 C29.8625117,21.228519 34.8589312,25.1568635 41.0001781,25.1568635 C43.6016859,25.1568635 46.1326661,24.4369797 48.1268527,23.1298187 C48.6932109,22.7584645 49.5358024,22.8185365 50.0081238,23.2639655 C50.4804452,23.7093944 50.4042184,24.3717267 49.8375039,24.7430808 C47.363872,26.3643246 44.2253924,27.2571429 41.0001781,27.2571429 Z M41.9797285,2.10013937 L40.0206277,2.10013937 C39.8508983,2.10013937 39.6822375,2.10378009 39.5144673,2.11022138 C39.4079634,2.11442222 39.3023501,2.12198373 39.1967367,2.12870507 C39.138498,2.1323458 39.079725,2.13472627 39.0216643,2.13920717 C38.869745,2.15110955 38.7187161,2.16581248 38.5685777,2.18303592 C38.5600289,2.18401612 38.5514801,2.18471626 38.5429313,2.18569645 C33.8831209,2.72858486 30.2080258,5.79617741 29.8881581,9.55270754 C31.016244,10.4647097 32.4538678,11.3191603 33.8706539,11.9471857 C33.2697442,10.1576283 33.4594208,8.83100342 33.6852517,8.08983542 C33.8061817,7.69327624 34.2079754,7.38745517 34.716095,7.30553881 C34.8055012,7.29125596 34.8954417,7.28425456 34.9844918,7.28425456 C35.4016022,7.28425456 35.8012587,7.43800526 36.056298,7.70769912 C37.737919,9.4859142 45.7150215,12.6203001 52.1380226,14.117199 L52.1380226,10.0869142 C52.1380226,5.68303482 47.580976,2.10013937 41.9797285,2.10013937 Z" id="Combined-Shape" fill="#5B1529"></path>
            </g>
        </g>
    </g>
</svg>