<?xml version="1.0" encoding="UTF-8"?>
<svg width="52px" height="59px" viewBox="0 0 52 59" version="1.1" xmlns="http://www.w3.org/2000/svg" xmlns:xlink="http://www.w3.org/1999/xlink">
    <!-- Generator: Sketch 53.2 (72643) - https://sketchapp.com -->
    <title>Group 17</title>
    <desc>Created with Sketch.</desc>
    <g id="Page-1" stroke="none" stroke-width="1" fill="none" fill-rule="evenodd">
        <g id="Home-AWMUN-III" transform="translate(-366.000000, -1249.000000)" fill-rule="nonzero">
            <g id="Group-17" transform="translate(366.000000, 1249.000000)">
                <g id="remove" opacity="0.5" transform="translate(0.000000, 1.000000)">
                    <path d="M20,0 C8.97155766,0 0,8.97155766 0,20 C0,31.0284423 8.97155766,40 20,40 C31.0284423,40 40,31.0284423 40,20 C40,8.97155766 31.0284423,0 20,0 Z" id="Path" fill="#F44336"></path>
                    <path d="M27.8070626,24.5083587 C28.4545564,25.1636299 28.4545564,26.2223101 27.8070626,26.8775812 C27.4840739,27.2042965 27.0600944,27.3684211 26.6358115,27.3684211 C26.2118319,27.3684211 25.7878524,27.2042965 25.4648637,26.8775812 L20.4878049,21.8427916 L15.510746,26.8775812 C15.1877573,27.2042965 14.7637778,27.3684211 14.3397982,27.3684211 C13.9155154,27.3684211 13.4915359,27.2042965 13.1685471,26.8775812 C12.5210534,26.2223101 12.5210534,25.1636299 13.1685471,24.5083587 L18.1459093,19.4738759 L13.1685471,14.4393931 C12.5210534,13.784122 12.5210534,12.7254418 13.1685471,12.0701706 C13.8163442,11.4152063 14.8629489,11.4152063 15.510746,12.0701706 L20.4878049,17.1049602 L25.4648637,12.0701706 C26.1126608,11.4152063 27.1592656,11.4152063 27.8070626,12.0701706 C28.4545564,12.7254418 28.4545564,13.784122 27.8070626,14.4393931 L22.8297004,19.4738759 L27.8070626,24.5083587 Z" id="Path" fill="#FAFAFA"></path>
                </g>
                <g id="Group-13" transform="translate(6.000000, 0.000000)">
                    <path d="M12.1447857,51.5789198 C10.3846158,53.0783396 4.5958657,52.6372721 1.3572174,52.0110042 C0.737525589,51.8843433 0.13854852,52.3090916 0.0196575524,52.9476363 C-0.0960240882,53.5854325 0.310539256,54.2009208 0.932127491,54.3203953 C1.46239579,54.4234008 4.29214669,54.9468129 7.2561058,54.9468129 C9.67535464,54.9468129 12.1862152,54.5982708 13.6059046,53.3903507 C14.4407672,52.6847326 14.8786944,51.726092 14.8786944,50.6274657 C14.8786944,47.4793577 13.0082404,45.9938616 11.5058379,44.7944754 C10.0838144,43.6627615 9.20868936,42.8894711 9.14785803,41.3145937 C9.07214709,39.3130217 9.83275752,37.9642175 10.5614206,37.1356814 C12.2629472,38.6824119 15.5357311,38.3254856 17.9419968,36.2951679 L21.3864796,33.3936445 C21.8346183,33.9743983 22.4618958,34.4015421 23.1937682,34.5575476 L23.1937682,52.9542239 C17.9463731,53.1467605 13.9316513,54.1937343 13.9316513,55.4609425 C13.9316513,56.8636449 18.8455681,58 24.9116333,58 C30.9774066,58 35.8916153,56.8636449 35.8916153,55.4609425 C35.8916153,54.1937343 31.8766016,53.1467605 26.6292066,52.9542239 L26.6292066,32.8378935 C26.8408763,32.4041621 26.9693952,31.9240184 26.9693952,31.4098888 C26.9693952,30.6126436 26.6764712,29.8950481 26.2089306,29.3328592 L37,20.2462103 C34.8639013,19.3836883 32.8061394,18.0670734 30.9968085,16.3420294 C29.0531235,14.484785 27.5402177,12.3056481 26.5480981,10 L17.7861985,21.0594752 C16.9323718,20.6859303 15.9052413,20.8621477 15.2302616,21.5944155 C14.4652748,22.4184602 14.3975872,23.6654565 15.0115897,24.5625632 L11.0504053,29.5622263 C9.71955582,31.2429539 9.18257711,33.2904892 9.45712042,34.9572931 C8.2671896,36.0425946 6.73517372,38.0952203 6.85975395,41.4051727 C6.96551585,44.1554815 8.70292864,45.5384212 10.1007363,46.6508216 C11.4896454,47.7572332 12.588548,48.6318823 12.588548,50.6264176 C12.5882563,51.0306546 12.4563821,51.314968 12.1447857,51.5789198 Z" id="Path" stroke="#642E32" stroke-width="2"></path>
                    <path d="M46,9.75550159 C46,4.3677341 41.621288,0 36.2212671,0 C33.8568753,0 31.691329,0.837759903 30,2.23174989 C30.7559786,4.80285324 32.2253368,7.38078616 34.3689751,9.6222492 C37.2241673,12.6031264 40.8961937,14.5368038 44.4544201,15 C45.4287181,13.4847473 46,11.6893307 46,9.75550159 Z" id="Path" fill="#642E32"></path>
                    <path d="M33.4528437,11.2638842 C31.462132,9.06307733 30.0673049,6.54496098 29.2700772,4 C28.1247499,5.30482977 27.326379,6.94024055 27,8.75240357 C27.8675336,11.3512046 29.422978,13.8281492 31.5284367,15.8954869 C33.4984281,17.8286016 35.7769363,19.2294989 38.1146042,20 C40.0530151,19.5195114 41.752072,18.3970139 43,16.8483203 C39.5940269,16.2186781 36.1493284,14.2437884 33.4528437,11.2638842 Z" id="Path" stroke="#642E32"></path>
                </g>
            </g>
        </g>
    </g>
</svg>