<?xml version="1.0" encoding="UTF-8"?>
<svg width="65px" height="54px" viewBox="0 0 65 54" version="1.1" xmlns="http://www.w3.org/2000/svg" xmlns:xlink="http://www.w3.org/1999/xlink">
    <!-- Generator: Sketch 53.2 (72643) - https://sketchapp.com -->
    <title>Group 22</title>
    <desc>Created with Sketch.</desc>
    <g id="Page-1" stroke="none" stroke-width="1" fill="none" fill-rule="evenodd">
        <g id="Home-AWMUN-III" transform="translate(-1246.000000, -1249.000000)" fill-rule="nonzero">
            <g id="Group-22" transform="translate(1246.000000, 1250.000000)">
                <g id="remove" opacity="0.5">
                    <path d="M20,0 C8.97155766,0 0,8.97155766 0,20 C0,31.0284423 8.97155766,40 20,40 C31.0284423,40 40,31.0284423 40,20 C40,8.97155766 31.0284423,0 20,0 Z" id="Path" fill="#F44336"></path>
                    <path d="M27.8070626,24.5083587 C28.4545564,25.1636299 28.4545564,26.2223101 27.8070626,26.8775812 C27.4840739,27.2042965 27.0600944,27.3684211 26.6358115,27.3684211 C26.2118319,27.3684211 25.7878524,27.2042965 25.4648637,26.8775812 L20.4878049,21.8427916 L15.510746,26.8775812 C15.1877573,27.2042965 14.7637778,27.3684211 14.3397982,27.3684211 C13.9155154,27.3684211 13.4915359,27.2042965 13.1685471,26.8775812 C12.5210534,26.2223101 12.5210534,25.1636299 13.1685471,24.5083587 L18.1459093,19.4738759 L13.1685471,14.4393931 C12.5210534,13.784122 12.5210534,12.7254418 13.1685471,12.0701706 C13.8163442,11.4152063 14.8629489,11.4152063 15.510746,12.0701706 L20.4878049,17.1049602 L25.4648637,12.0701706 C26.1126608,11.4152063 27.1592656,11.4152063 27.8070626,12.0701706 C28.4545564,12.7254418 28.4545564,13.784122 27.8070626,14.4393931 L22.8297004,19.4738759 L27.8070626,24.5083587 Z" id="Path" fill="#FAFAFA"></path>
                </g>
                <g id="Group-8" transform="translate(14.000000, 0.000000)" stroke="#642E32" stroke-width="1.6">
                    <path d="M30.6991094,31.0919511 C30.4417056,31.7575659 30.3000835,32.475856 30.3000835,33.2252877 L30.3000835,36.9813439 L30.3446136,36.9813439 L30.3446136,33.2793191 C30.3446136,32.5258747 30.4662792,31.7899679 30.6991094,31.0919511 Z M18.7000358,36.9813439 L18.7000358,33.4264478 C18.7000358,33.1667409 18.6842455,32.9103182 18.6535505,32.6580453 C18.4354592,31.3038104 17.6813026,30.0671957 16.5109575,29.1810936 C12.4340877,26.0958721 10,21.0899212 10,15.7906373 C10,15.7540075 10.0001119,15.7174089 10.0003355,15.6808418 C10.0001119,15.6452228 10,15.609575 10,15.5738987 C10,12.4194309 10.8732976,9.4838846 12.3744006,7.03101269 C14.3380701,3.72478471 17.3708001,1.2316348 20.902306,0.0683834412 C21.2307736,-0.0400428381 21.5722059,0.0465780278 21.8164151,0.266230264 C23.6543923,-0.103210068 25.6145054,-0.100190239 27.6262575,0.351030631 C28.0564727,0.447505314 28.4799439,0.565772891 28.8956472,0.704648829 C29.0602273,0.176955623 29.5920414,-0.117870518 30.0963608,0.0446757724 C35.602576,1.81914028 39.7907054,6.85844266 40.7655515,12.8834247 C41.8001902,19.2772832 39.3623181,25.5477811 34.4029401,29.2469931 C33.054958,30.2515586 32.2821958,31.721037 32.2821958,33.2793191 L32.2821958,36.9813439 L34.219778,36.9813439 C34.7548838,36.9813439 35.1885692,37.4418366 35.1885692,38.0100189 C35.1885692,38.5782012 34.7548838,39.038694 34.219778,39.038694 L32.2821958,39.038694 L32.2821958,43.7705994 L34.219778,43.7705994 C34.7548838,43.7705994 35.1885692,44.2310922 35.1885692,44.7992745 C35.1885692,45.3674568 34.7548838,45.8279495 34.219778,45.8279495 L29.3758224,45.8279495 L29.3758224,47.8852997 C29.3758224,50.1540105 27.6372965,52 25.5006579,52 C23.3640194,52 21.6254935,50.1540105 21.6254935,47.8852997 L21.6254935,45.8279495 L16.7815379,45.8279495 C16.2464321,45.8279495 15.8127467,45.3674568 15.8127467,44.7992745 C15.8127467,44.2310922 16.2464321,43.7705994 16.7815379,43.7705994 L18.7191201,43.7705994 L18.7191201,39.038694 L16.7815379,39.038694 C16.2464321,39.038694 15.8127467,38.5782012 15.8127467,38.0100189 C15.8127467,37.4418366 16.2464321,36.9813439 16.7815379,36.9813439 L18.7000358,36.9813439 Z M38.7606272,12.7039514 C38.7668276,12.7410105 38.7728995,12.7781097 38.7788424,12.8152482 C39.3740251,16.5355833 38.7373243,20.0632601 37.2364501,23.0117059 C38.8120459,20.1346783 39.4180099,16.7046259 38.8559734,13.231808 C38.827342,13.0548574 38.795539,12.8788799 38.7606272,12.7039514 Z M6.695007,25.1533704 C7.11125189,24.8377612 7.64302607,25.0248054 7.88325878,25.571653 C8.12349158,26.1180541 7.98111881,26.8171263 7.56487392,27.1327354 L5.30491894,28.8469351 C4.89105253,29.1607587 4.35825904,28.9777322 4.11666707,28.4286525 C3.87643427,27.8822514 4.0191469,27.1831792 4.43505202,26.8675701 L6.695007,25.1533704 Z M45.564948,4.13273535 L43.304993,5.84693509 C42.8907868,6.16075867 42.3579933,5.97773219 42.1167412,5.42865253 C41.8765084,4.88225136 42.0188812,4.18317922 42.4351261,3.86757014 L44.6950811,2.1533704 C45.1109862,1.83776121 45.6427604,2.02480542 45.8833329,2.57165297 C46.1235657,3.11805413 45.9808531,3.81712627 45.564948,4.13273535 Z M4.43505202,4.13258413 C4.0191469,3.81698301 3.87643427,3.11792852 4.11666707,2.57154115 C4.35723964,2.02515378 4.88901382,1.83766792 5.30491894,2.15326915 L7.56487392,3.86742561 C7.98111881,4.18302672 8.12349158,4.88208121 7.88325878,5.42846858 C7.64200667,5.97753438 7.10921318,6.1610026 6.695007,5.84674058 L4.43505202,4.13258413 Z M44.6950811,28.8467406 L42.4351261,27.1325841 C42.0188812,26.816983 41.8765084,26.1179285 42.1167412,25.5715412 C42.3569739,25.0251538 42.8890879,24.8376679 43.304993,25.1532692 L45.564948,26.8674256 C45.9808531,27.1830267 46.1235657,27.8820812 45.8833329,28.4284686 C45.6420807,28.9775344 45.1092872,29.1610026 44.6950811,28.8467406 Z M0.892857143,17 C0.399693036,17 0,16.5523438 0,16 C0,15.4476562 0.399693036,15 0.892857143,15 L4.10714286,15 C4.60030696,15 5,15.4476562 5,16 C5,16.5523438 4.60030696,17 4.10714286,17 L0.892857143,17 Z M45,16 C45,15.4476562 45.399693,15 45.8928571,15 L49.1071429,15 C49.600307,15 50,15.4476562 50,16 C50,16.5523438 49.600307,17 49.1071429,17 L45.8928571,17 C45.399693,17 45,16.5523438 45,16 Z" id="Combined-Shape"></path>
                </g>
            </g>
        </g>
    </g>
</svg>