<?xml version="1.0" encoding="UTF-8"?>
<svg width="65px" height="54px" viewBox="0 0 65 54" version="1.1" xmlns="http://www.w3.org/2000/svg" xmlns:xlink="http://www.w3.org/1999/xlink">
    <!-- Generator: Sketch 53.2 (72643) - https://sketchapp.com -->
    <title>Group 20</title>
    <desc>Created with Sketch.</desc>
    <g id="Page-1" stroke="none" stroke-width="1" fill="none" fill-rule="evenodd">
        <g id="Home-AWMUN-III" transform="translate(-983.000000, -1250.000000)" fill-rule="nonzero">
            <g id="Group-20" transform="translate(983.000000, 1250.000000)">
                <g id="remove" opacity="0.5">
                    <path d="M20,0 C8.97155766,0 0,8.97155766 0,20 C0,31.0284423 8.97155766,40 20,40 C31.0284423,40 40,31.0284423 40,20 C40,8.97155766 31.0284423,0 20,0 Z" id="Path" fill="#F44336"></path>
                    <path d="M27.8070626,24.5083587 C28.4545564,25.1636299 28.4545564,26.2223101 27.8070626,26.8775812 C27.4840739,27.2042965 27.0600944,27.3684211 26.6358115,27.3684211 C26.2118319,27.3684211 25.7878524,27.2042965 25.4648637,26.8775812 L20.4878049,21.8427916 L15.510746,26.8775812 C15.1877573,27.2042965 14.7637778,27.3684211 14.3397982,27.3684211 C13.9155154,27.3684211 13.4915359,27.2042965 13.1685471,26.8775812 C12.5210534,26.2223101 12.5210534,25.1636299 13.1685471,24.5083587 L18.1459093,19.4738759 L13.1685471,14.4393931 C12.5210534,13.784122 12.5210534,12.7254418 13.1685471,12.0701706 C13.8163442,11.4152063 14.8629489,11.4152063 15.510746,12.0701706 L20.4878049,17.1049602 L25.4648637,12.0701706 C26.1126608,11.4152063 27.1592656,11.4152063 27.8070626,12.0701706 C28.4545564,12.7254418 28.4545564,13.784122 27.8070626,14.4393931 L22.8297004,19.4738759 L27.8070626,24.5083587 Z" id="Path" fill="#FAFAFA"></path>
                </g>
                <g id="Group-14" transform="translate(10.000000, 33.000000)" fill="#642E32" stroke="#642E32">
                    <path d="M0,19 C0,15.1402344 3.1402344,12 7,12 C10.8597656,12 14,15.1402344 14,19 C14,19.5523438 13.5523438,20 13,20 L1,20 C0.4476562,20 0,19.5523438 0,19 Z M12,5 C12,7.7570312 9.7570312,10 7,10 C4.2429688,10 2,7.7570312 2,5 C2,2.2429688 4.2429688,-5.32907052e-15 7,-5.32907052e-15 C9.7570312,-5.32907052e-15 12,2.2429688 12,5 Z" id="Combined-Shape"></path>
                    <path d="M40,19 C40,15.1402344 43.1402344,12 47,12 C50.8597656,12 54,15.1402344 54,19 C54,19.5523438 53.5523438,20 53,20 L41,20 C40.4476562,20 40,19.5523438 40,19 Z M52,5 C52,7.7570312 49.7570312,10 47,10 C44.2429688,10 42,7.7570312 42,5 C42,2.2429688 44.2429688,-5.32907052e-15 47,-5.32907052e-15 C49.7570312,-5.32907052e-15 52,2.2429688 52,5 Z" id="Combined-Shape"></path>
                    <path d="M20,19 C20,15.1402344 23.1402344,12 27,12 C30.8597656,12 34,15.1402344 34,19 C34,19.5523438 33.5523438,20 33,20 L21,20 C20.4476562,20 20,19.5523438 20,19 Z M32,5 C32,7.7570312 29.7570312,10 27,10 C24.2429688,10 22,7.7570312 22,5 C22,2.2429688 24.2429688,-5.32907052e-15 27,-5.32907052e-15 C29.7570312,-5.32907052e-15 32,2.2429688 32,5 Z" id="Combined-Shape"></path>
                </g>
            </g>
        </g>
    </g>
</svg>