<?xml version="1.0" encoding="UTF-8"?>
<svg width="313px" height="200px" viewBox="0 0 313 200" version="1.1" xmlns="http://www.w3.org/2000/svg" xmlns:xlink="http://www.w3.org/1999/xlink">
    <!-- Generator: Sketch 53.2 (72643) - https://sketchapp.com -->
    <title>Group 28</title>
    <desc>Created with Sketch.</desc>
    <g id="Page-1" stroke="none" stroke-width="1" fill="none" fill-rule="evenodd">
        <g id="Home-AWMUN-III" transform="translate(-146.000000, -1653.000000)">
            <g id="Group-28" transform="translate(146.000000, 1653.000000)">
                <text id="44%" font-family="HelveticaNeue-Bold, Helvetica Neue" font-size="50" font-weight="bold" line-spacing="35" letter-spacing="0.06" fill="#5B1529">
                    <tspan x="47" y="129">44%</tspan>
                </text>
                <path d="M100,200 C44.771525,200 0,155.228475 0,100 C0,44.771525 44.771525,0 100,0 C126.74309,0 151.034284,10.4978162 168.977534,27.5974011 C188.089775,45.8110126 200,71.5146152 200,100 C200,155.228475 155.228475,200 100,200 Z M100,180 C144.18278,180 180,144.18278 180,100 C180,55.81722 144.18278,20 100,20 C55.81722,20 20,55.81722 20,100 C20,144.18278 55.81722,180 100,180 Z" id="Combined-Shape" fill="#DEB061"></path>
                <path d="M1.11750412,115 C0.381498284,110.107098 0,105.098101 0,100 C0,44.771525 44.771525,0 100,0 C126.74309,0 151.034284,10.4978162 168.977534,27.5974011 C188.089775,45.8110126 200,71.5146152 200,100 C200,105.098101 199.618502,110.107098 198.882496,115 L178.596042,115 C179.517716,110.141239 180,105.126941 180,100 C180,55.81722 144.18278,20 100,20 C55.81722,20 20,55.81722 20,100 C20,105.126941 20.4822835,110.141239 21.4039578,115 L1.11750412,115 Z" id="Combined-Shape" fill="#5B1529"></path>
                <path d="M271.5,34 C262.387302,34 255,26.3888407 255,17 C255,7.61115925 262.387302,0 271.5,0 C280.612698,0 288,7.61115925 288,17 C288,26.3888407 280.612698,34 271.5,34 Z M276.506334,41.6073839 C305.729603,43.6853196 315.195982,76.9397646 312.586231,102.166501 C311.479964,112.847689 294.744891,112.95607 295.866007,102.166501 C296.853481,92.5728668 296.333758,77.7694439 290.639081,68.0636906 C290.498014,80.1912107 290.958339,92.3374173 290.984326,104.472412 C291.158804,105.231083 291.273885,106.019652 291.273885,106.886704 C291.273885,134.837928 291.314721,162.777941 292.461823,190.706742 C292.974121,203.122033 273.852036,203.073449 273.34345,190.706742 C272.452497,168.824883 272.233471,146.924338 272.177786,125.020056 C271.271984,125.072378 270.366181,125.072378 269.460379,125.012582 C269.408406,146.916864 269.181956,168.817409 268.283578,190.706742 C267.778704,203.073449 248.656619,203.122033 249.165205,190.706742 C250.312307,162.777941 250.360567,134.837928 250.360567,106.886704 C250.360567,106.692365 250.405115,106.531661 250.416252,106.341059 C250.39769,105.941169 250.356855,105.55249 250.356855,105.13765 C250.356855,93.3988089 250.356855,81.6562301 250.356855,69.9136512 C245.601392,79.5745571 245.204175,93.1670966 246.132251,102.173976 C247.249655,112.971019 230.518295,112.8589 229.412028,102.173976 C226.861674,77.4592485 235.893713,45.0456947 263.710018,41.7643503 C267.80469,40.7926538 272.337415,40.7552808 276.506334,41.6073839 Z" id="Combined-Shape" fill="#DEB061" fill-rule="nonzero"></path>
                <path d="M291.275418,114 L250.358884,114 C250.36022,111.628982 250.360567,109.257883 250.360567,106.886704 C250.360567,106.692365 250.405115,106.531661 250.416252,106.341059 C250.39769,105.941169 250.356855,105.55249 250.356855,105.13765 C250.356855,93.3988089 250.356855,81.6562301 250.356855,69.9136512 C245.601392,79.5745571 245.204175,93.1670966 246.132251,102.173976 C247.249655,112.971019 230.518295,112.8589 229.412028,102.173976 C226.861674,77.4592485 235.893713,45.0456947 263.710018,41.7643503 C267.80469,40.7926538 272.337415,40.7552808 276.506334,41.6073839 C305.729603,43.6853196 315.195982,76.9397646 312.586231,102.166501 C311.479964,112.847689 294.744891,112.95607 295.866007,102.166501 C296.853481,92.5728668 296.333758,77.7694439 290.639081,68.0636906 C290.498014,80.1912107 290.958339,92.3374173 290.984326,104.472412 C291.158804,105.231083 291.273885,106.019652 291.273885,106.886704 C291.273885,109.257883 291.274179,111.628982 291.275418,114 Z M271.5,34 C262.387302,34 255,26.3888407 255,17 C255,7.61115925 262.387302,9.23705556e-14 271.5,9.23705556e-14 C280.612698,9.23705556e-14 288,7.61115925 288,17 C288,26.3888407 280.612698,34 271.5,34 Z" id="Combined-Shape" fill="#5B1529" fill-rule="nonzero"></path>
            </g>
        </g>
    </g>
</svg>